<svg xmlns="http://www.w3.org/2000/svg" xmlns:xlink="http://www.w3.org/1999/xlink" width="481" zoomAndPan="magnify" viewBox="0 0 360.75 110.999996" height="148" preserveAspectRatio="xMidYMid meet" version="1.0"><defs><g/><clipPath id="327602326e"><path d="M 8.40625 14.089844 L 352 14.089844 L 352 96.828125 L 8.40625 96.828125 Z M 8.40625 14.089844 " clip-rule="nonzero"/></clipPath><clipPath id="e21ee5b5a4"><path d="M 123.988281 79 L 337 79 L 337 84 L 123.988281 84 Z M 123.988281 79 " clip-rule="nonzero"/></clipPath></defs><g clip-path="url(#327602326e)"><path fill="#f4f5f7" d="M 8.40625 14.089844 L 351.960938 14.089844 L 351.960938 96.828125 L 8.40625 96.828125 Z M 8.40625 14.089844 " fill-opacity="1" fill-rule="nonzero"/></g><path fill="#000000" d="M 24.308594 79.070312 L 107.640625 79.070312 L 107.640625 83.566406 L 24.308594 83.566406 Z M 24.308594 79.070312 " fill-opacity="1" fill-rule="nonzero"/><g fill="#000000" fill-opacity="1"><g transform="translate(24.308572, 76.070686)"><g><path d="M 12.390625 0.421875 C 8.691406 0.421875 5.945312 -0.625 4.15625 -2.71875 C 2.363281 -4.8125 1.46875 -7.910156 1.46875 -12.015625 L 1.46875 -44.875 L 10.1875 -44.875 L 10.1875 -12.390625 C 10.1875 -10.953125 10.328125 -9.832031 10.609375 -9.03125 C 10.890625 -8.238281 11.484375 -7.84375 12.390625 -7.84375 C 13.285156 -7.84375 13.875 -8.234375 14.15625 -9.015625 C 14.4375 -9.796875 14.578125 -10.921875 14.578125 -12.390625 L 14.578125 -44.875 L 23.296875 -44.875 L 23.296875 -12.015625 C 23.296875 -7.910156 22.398438 -4.8125 20.609375 -2.71875 C 18.816406 -0.625 16.078125 0.421875 12.390625 0.421875 Z M 12.390625 0.421875 "/></g></g></g><g fill="#000000" fill-opacity="1"><g transform="translate(49.070867, 76.070686)"><g><path d="M 1.984375 0 L 1.984375 -44.875 L 11.234375 -44.875 L 15.359375 -23.40625 L 15.359375 -44.875 L 24.03125 -44.875 L 24.03125 0 L 15.25 0 L 10.765625 -22.46875 L 10.765625 0 Z M 1.984375 0 "/></g></g></g><g fill="#000000" fill-opacity="1"><g transform="translate(75.086944, 76.070686)"><g><path d="M 1.5625 0 L 1.5625 -44.875 L 10.234375 -44.875 L 10.234375 0 Z M 1.5625 0 "/></g></g></g><g fill="#000000" fill-opacity="1"><g transform="translate(86.945677, 76.070686)"><g><path d="M 5.859375 0 L 5.859375 -36.265625 L 0.515625 -36.265625 L 0.515625 -44.875 L 20.171875 -44.875 L 20.171875 -36.265625 L 14.84375 -36.265625 L 14.84375 0 Z M 5.859375 0 "/></g></g></g><g clip-path="url(#e21ee5b5a4)"><path fill="#ff0000" d="M 107.640625 79.070312 L 336.09375 79.070312 L 336.09375 83.566406 L 107.640625 83.566406 Z M 107.640625 79.070312 " fill-opacity="1" fill-rule="nonzero"/></g><g fill="#ff0000" fill-opacity="1"><g transform="translate(107.641444, 76.070686)"><g><path d="M 1.828125 -38.25 L 11.125 -38.25 L 11.125 -36.203125 C 12.445312 -37.847656 14.273438 -38.671875 16.609375 -38.671875 C 19.578125 -38.671875 21.644531 -37.675781 22.8125 -35.6875 C 23.976562 -33.695312 24.5625 -30.945312 24.5625 -27.4375 L 24.5625 -13.265625 C 24.5625 -10.273438 24.382812 -7.828125 24.03125 -5.921875 C 23.6875 -4.023438 22.921875 -2.492188 21.734375 -1.328125 C 20.546875 -0.160156 18.753906 0.421875 16.359375 0.421875 C 14.054688 0.421875 12.3125 -0.222656 11.125 -1.515625 L 11.125 7.625 L 1.828125 7.625 Z M 13.328125 -6.6875 C 14.160156 -6.6875 14.695312 -7.066406 14.9375 -7.828125 C 15.1875 -8.597656 15.3125 -9.71875 15.3125 -11.1875 L 15.3125 -27.4375 C 15.3125 -28.757812 15.1875 -29.765625 14.9375 -30.453125 C 14.695312 -31.148438 14.140625 -31.5 13.265625 -31.5 C 11.835938 -31.5 11.125 -30.175781 11.125 -27.53125 L 11.125 -10.765625 C 11.125 -9.472656 11.269531 -8.46875 11.5625 -7.75 C 11.863281 -7.039062 12.453125 -6.6875 13.328125 -6.6875 Z M 13.328125 -6.6875 "/></g></g></g><g fill="#ff0000" fill-opacity="1"><g transform="translate(133.762001, 76.070686)"><g><path d="M 1.828125 -38.25 L 10.96875 -38.25 L 10.96875 -34.015625 C 11.425781 -35.515625 12.21875 -36.671875 13.34375 -37.484375 C 14.476562 -38.304688 15.882812 -38.71875 17.5625 -38.71875 L 17.5625 -31.09375 C 16.269531 -31.09375 14.847656 -30.90625 13.296875 -30.53125 C 11.742188 -30.164062 10.96875 -29.742188 10.96875 -29.265625 L 10.96875 0 L 1.828125 0 Z M 1.828125 -38.25 "/></g></g></g><g fill="#ff0000" fill-opacity="1"><g transform="translate(151.732953, 76.070686)"><g><path d="M 12.953125 0.421875 C 5.328125 0.421875 1.515625 -3.53125 1.515625 -11.4375 L 1.515625 -26.796875 C 1.515625 -30.421875 2.53125 -33.304688 4.5625 -35.453125 C 6.601562 -37.597656 9.398438 -38.671875 12.953125 -38.671875 C 16.503906 -38.671875 19.300781 -37.597656 21.34375 -35.453125 C 23.382812 -33.304688 24.40625 -30.421875 24.40625 -26.796875 L 24.40625 -11.4375 C 24.40625 -3.53125 20.585938 0.421875 12.953125 0.421875 Z M 12.953125 -6.640625 C 13.691406 -6.640625 14.234375 -6.898438 14.578125 -7.421875 C 14.921875 -7.941406 15.09375 -8.65625 15.09375 -9.5625 L 15.09375 -28.265625 C 15.09375 -30.492188 14.378906 -31.609375 12.953125 -31.609375 C 11.523438 -31.609375 10.8125 -30.492188 10.8125 -28.265625 L 10.8125 -9.5625 C 10.8125 -8.65625 10.984375 -7.941406 11.328125 -7.421875 C 11.679688 -6.898438 12.222656 -6.640625 12.953125 -6.640625 Z M 12.953125 -6.640625 "/></g></g></g><g fill="#ff0000" fill-opacity="1"><g transform="translate(177.69679, 76.070686)"><g><path d="M 9.359375 0.421875 C 7.128906 0.421875 5.445312 -0.109375 4.3125 -1.171875 C 3.175781 -2.234375 2.425781 -3.644531 2.0625 -5.40625 C 1.695312 -7.164062 1.515625 -9.421875 1.515625 -12.171875 L 1.625 -29.421875 C 1.625 -32.140625 2.3125 -34.359375 3.6875 -36.078125 C 5.0625 -37.804688 7.003906 -38.671875 9.515625 -38.671875 C 11.984375 -38.671875 13.828125 -37.847656 15.046875 -36.203125 L 15.046875 -45.140625 L 24.1875 -45.140625 L 24.1875 0 L 15.046875 0 L 15.046875 -4.078125 C 14.523438 -2.578125 13.816406 -1.453125 12.921875 -0.703125 C 12.035156 0.046875 10.847656 0.421875 9.359375 0.421875 Z M 12.859375 -6.734375 C 13.765625 -6.734375 14.351562 -7.175781 14.625 -8.0625 C 14.90625 -8.957031 15.046875 -10.15625 15.046875 -11.65625 L 15.046875 -27.640625 C 15.046875 -28.753906 14.890625 -29.691406 14.578125 -30.453125 C 14.265625 -31.222656 13.707031 -31.609375 12.90625 -31.609375 C 12 -31.609375 11.394531 -31.25 11.09375 -30.53125 C 10.800781 -29.820312 10.65625 -28.859375 10.65625 -27.640625 L 10.65625 -11.546875 C 10.65625 -8.335938 11.390625 -6.734375 12.859375 -6.734375 Z M 12.859375 -6.734375 "/></g></g></g><g fill="#ff0000" fill-opacity="1"><g transform="translate(203.712867, 76.070686)"><g><path d="M 9.203125 0.421875 C 6.335938 0.421875 4.375 -0.429688 3.3125 -2.140625 C 2.25 -3.847656 1.71875 -6.390625 1.71875 -9.765625 L 1.71875 -38.25 L 10.921875 -38.25 L 10.921875 -11.59375 C 10.921875 -11.351562 10.921875 -10.703125 10.921875 -9.640625 C 10.921875 -8.578125 11.082031 -7.828125 11.40625 -7.390625 C 11.738281 -6.953125 12.253906 -6.734375 12.953125 -6.734375 C 13.898438 -6.734375 14.492188 -7.125 14.734375 -7.90625 C 14.972656 -8.695312 15.09375 -9.820312 15.09375 -11.28125 L 15.09375 -11.59375 L 15.15625 -38.25 L 24.25 -38.25 L 24.25 0 L 15.09375 0 L 15.09375 -4.078125 C 14.46875 -2.472656 13.738281 -1.320312 12.90625 -0.625 C 12.070312 0.0703125 10.835938 0.421875 9.203125 0.421875 Z M 9.203125 0.421875 "/></g></g></g><g fill="#ff0000" fill-opacity="1"><g transform="translate(229.781184, 76.070686)"><g><path d="M 13.328125 0.421875 C 9.140625 0.421875 6.125 -0.640625 4.28125 -2.765625 C 2.4375 -4.890625 1.515625 -8.148438 1.515625 -12.546875 L 1.515625 -24.34375 C 1.515625 -27.65625 1.867188 -30.347656 2.578125 -32.421875 C 3.296875 -34.492188 4.5 -36.050781 6.1875 -37.09375 C 7.875 -38.144531 10.21875 -38.671875 13.21875 -38.671875 C 16.488281 -38.671875 19.148438 -37.816406 21.203125 -36.109375 C 23.265625 -34.398438 24.296875 -32.015625 24.296875 -28.953125 L 24.296875 -23.09375 L 15 -23.09375 L 15 -28.46875 C 15 -29.476562 14.859375 -30.253906 14.578125 -30.796875 C 14.296875 -31.335938 13.753906 -31.609375 12.953125 -31.609375 C 11.460938 -31.609375 10.71875 -30.546875 10.71875 -28.421875 L 10.71875 -9.875 C 10.71875 -9 10.898438 -8.253906 11.265625 -7.640625 C 11.628906 -7.035156 12.175781 -6.734375 12.90625 -6.734375 C 13.632812 -6.734375 14.179688 -7.03125 14.546875 -7.625 C 14.910156 -8.21875 15.078125 -8.984375 15.046875 -9.921875 L 15 -16.359375 L 24.296875 -16.359375 L 24.296875 -9.671875 C 24.296875 -6.535156 23.273438 -4.066406 21.234375 -2.265625 C 19.203125 -0.472656 16.566406 0.421875 13.328125 0.421875 Z M 13.328125 0.421875 "/></g></g></g><g fill="#ff0000" fill-opacity="1"><g transform="translate(255.431578, 76.070686)"><g><path d="M 9.71875 0.421875 C 7.3125 0.421875 5.65625 -0.0820312 4.75 -1.09375 C 3.84375 -2.101562 3.390625 -3.722656 3.390625 -5.953125 L 3.390625 -29.828125 L 0.84375 -29.828125 L 0.84375 -36.78125 L 3.390625 -36.78125 L 3.390625 -44.875 L 12.28125 -44.875 L 12.28125 -36.78125 L 14.890625 -36.78125 L 14.890625 -29.828125 L 12.28125 -29.828125 L 12.28125 -8.359375 C 12.28125 -7.703125 12.332031 -7.210938 12.4375 -6.890625 C 12.539062 -6.578125 12.816406 -6.421875 13.265625 -6.421875 C 13.617188 -6.421875 13.953125 -6.4375 14.265625 -6.46875 C 14.578125 -6.507812 14.785156 -6.53125 14.890625 -6.53125 L 14.890625 -0.265625 C 14.367188 -0.117188 13.609375 0.03125 12.609375 0.1875 C 11.617188 0.34375 10.65625 0.421875 9.71875 0.421875 Z M 9.71875 0.421875 "/></g></g></g><g fill="#ff0000" fill-opacity="1"><g transform="translate(271.365119, 76.070686)"><g><path d="M 1.78125 -40.8125 L 1.78125 -47.1875 L 10.921875 -47.1875 L 10.921875 -40.8125 Z M 1.78125 0 L 1.78125 -38.25 L 10.921875 -38.25 L 10.921875 0 Z M 1.78125 0 "/></g></g></g><g fill="#ff0000" fill-opacity="1"><g transform="translate(284.05971, 76.070686)"><g><path d="M 12.953125 0.421875 C 5.328125 0.421875 1.515625 -3.53125 1.515625 -11.4375 L 1.515625 -26.796875 C 1.515625 -30.421875 2.53125 -33.304688 4.5625 -35.453125 C 6.601562 -37.597656 9.398438 -38.671875 12.953125 -38.671875 C 16.503906 -38.671875 19.300781 -37.597656 21.34375 -35.453125 C 23.382812 -33.304688 24.40625 -30.421875 24.40625 -26.796875 L 24.40625 -11.4375 C 24.40625 -3.53125 20.585938 0.421875 12.953125 0.421875 Z M 12.953125 -6.640625 C 13.691406 -6.640625 14.234375 -6.898438 14.578125 -7.421875 C 14.921875 -7.941406 15.09375 -8.65625 15.09375 -9.5625 L 15.09375 -28.265625 C 15.09375 -30.492188 14.378906 -31.609375 12.953125 -31.609375 C 11.523438 -31.609375 10.8125 -30.492188 10.8125 -28.265625 L 10.8125 -9.5625 C 10.8125 -8.65625 10.984375 -7.941406 11.328125 -7.421875 C 11.679688 -6.898438 12.222656 -6.640625 12.953125 -6.640625 Z M 12.953125 -6.640625 "/></g></g></g><g fill="#ff0000" fill-opacity="1"><g transform="translate(310.023546, 76.070686)"><g><path d="M 1.828125 -38.25 L 10.96875 -38.25 L 10.96875 -33.390625 C 11.351562 -34.953125 12.015625 -36.222656 12.953125 -37.203125 C 13.898438 -38.179688 15.15625 -38.671875 16.71875 -38.671875 C 19.300781 -38.671875 21.207031 -37.875 22.4375 -36.28125 C 23.675781 -34.695312 24.296875 -32.441406 24.296875 -29.515625 L 24.296875 0 L 15.3125 0 L 15.3125 -28.578125 C 15.3125 -29.410156 15.144531 -30.125 14.8125 -30.71875 C 14.476562 -31.3125 13.960938 -31.609375 13.265625 -31.609375 C 12.328125 -31.609375 11.707031 -31.179688 11.40625 -30.328125 C 11.113281 -29.472656 10.96875 -28.332031 10.96875 -26.90625 L 10.96875 0 L 1.828125 0 Z M 1.828125 -38.25 "/></g></g></g></svg>